<svg xmlns="http://www.w3.org/2000/svg" version="1.1" xmlns:xlink="http://www.w3.org/1999/xlink" xmlns:svgjs="http://svgjs.com/svgjs" width="512" height="512" x="0" y="0" viewBox="0 0 24 24" style="enable-background:new 0 0 512 512" xml:space="preserve" class=""><g><path d="M11.476 15a1 1 0 0 0-1 1v3a3 3 0 0 1-3 3H5a3 3 0 0 1-3-3V5a3 3 0 0 1 3-3h2.476a3 3 0 0 1 3 3v3a1 1 0 0 0 2 0V5a5.006 5.006 0 0 0-5-5H5a5.006 5.006 0 0 0-5 5v14a5.006 5.006 0 0 0 5 5h2.476a5.006 5.006 0 0 0 5-5v-3a1 1 0 0 0-1-1Z" fill="rgb(107 114 128)" data-original="rgb(107 114 128)" class=""></path><path d="m22.867 9.879-4.586-4.586a1 1 0 1 0-1.414 1.414l4.262 4.263L6 11a1 1 0 0 0 0 2l15.188-.031-4.323 4.324a1 1 0 1 0 1.414 1.414l4.586-4.586a3 3 0 0 0 .002-4.242Z" fill="rgb(107 114 128)" data-original="rgb(107 114 128)" class=""></path></g></svg>